ffmpeg started on 2016-12-08 at 21:17:22
Report written to "Output/x264/results/ffmpeg/crowd_run_2160p50veryslow9000k.log"
Command line:
Tools/ffmpeg/ffmpeg -benchmark -y -i Input/y4m/crowd_run_2160p50.y4m -c:v libx264 -preset veryslow -b:v 9000k -an Output/x264/encoded/crowd_run_2160p50veryslow9000k.mkv
ffmpeg version N-82227-gdb23fde Copyright (c) 2000-2016 the FFmpeg developers
  built with gcc 5.4.0 (Ubuntu 5.4.0-6ubuntu1~16.04.2) 20160609
  configuration: --prefix=/home/jaroslav/ffmpeg_build --pkg-config-flags=--static --extra-cflags=-I/home/jaroslav/ffmpeg_build/include --extra-ldflags=-L/home/jaroslav/ffmpeg_build/lib --bindir=/home/jaroslav/bin --enable-gpl --enable-libass --enable-libfdk-aac --enable-libfreetype --enable-libmp3lame --enable-libopus --enable-libtheora --enable-libvorbis --enable-libvpx --enable-libx264 --enable-libx265 --enable-nvenc --enable-libmfx --enable-libxvid --enable-libgsm --enable-libopencore-amrnb --enable-version3 --enable-nonfree
  libavutil      55. 35.100 / 55. 35.100
  libavcodec     57. 66.101 / 57. 66.101
  libavformat    57. 57.100 / 57. 57.100
  libavdevice    57.  2.100 / 57.  2.100
  libavfilter     6. 66.100 /  6. 66.100
  libswscale      4.  3.100 /  4.  3.100
  libswresample   2.  4.100 /  2.  4.100
  libpostproc    54.  2.100 / 54.  2.100
Input #0, yuv4mpegpipe, from 'Input/y4m/crowd_run_2160p50.y4m':
  Duration: 00:00:10.00, start: 0.000000, bitrate: 4976642 kb/s
    Stream #0:0: Video: rawvideo (I420 / 0x30323449), yuv420p(progressive), 3840x2160, SAR 1:1 DAR 16:9, 50 fps, 50 tbr, 50 tbn, 50 tbc
[libx264 @ 0x44c01c0] using SAR=1/1
[libx264 @ 0x44c01c0] DPB size (16 frames, 518400 mbs) > level limit (5 frames, 184320 mbs)
[libx264 @ 0x44c01c0] using cpu capabilities: MMX2 SSE2Fast SSSE3 SSE4.2 AVX FMA3 AVX2 LZCNT BMI2
[libx264 @ 0x44c01c0] profile High, level 5.2
[libx264 @ 0x44c01c0] 264 - core 148 - H.264/MPEG-4 AVC codec - Copyleft 2003-2016 - http://www.videolan.org/x264.html - options: cabac=1 ref=16 deblock=1:0:0 analyse=0x3:0x133 me=umh subme=10 psy=1 psy_rd=1.00:0.00 mixed_ref=1 me_range=24 chroma_me=1 trellis=2 8x8dct=1 cqm=0 deadzone=21,11 fast_pskip=1 chroma_qp_offset=-2 threads=6 lookahead_threads=1 sliced_threads=0 nr=0 decimate=1 interlaced=0 bluray_compat=0 constrained_intra=0 bframes=8 b_pyramid=2 b_adapt=2 b_bias=0 direct=3 weightb=1 open_gop=0 weightp=2 keyint=250 keyint_min=25 scenecut=40 intra_refresh=0 rc_lookahead=60 rc=abr mbtree=1 bitrate=9000 ratetol=1.0 qcomp=0.60 qpmin=0 qpmax=69 qpstep=4 ip_ratio=1.40 aq=1:1.00
Output #0, matroska, to 'Output/x264/encoded/crowd_run_2160p50veryslow9000k.mkv':
  Metadata:
    encoder         : Lavf57.57.100
    Stream #0:0: Video: h264 (libx264) (H264 / 0x34363248), yuv420p, 3840x2160 [SAR 1:1 DAR 16:9], q=-1--1, 9000 kb/s, 50 fps, 1k tbn, 50 tbc
    Metadata:
      encoder         : Lavc57.66.101 libx264
    Side data:
      cpb: bitrate max/min/avg: 0/0/9000000 buffer size: 0 vbv_delay: -1
Stream mapping:
  Stream #0:0 -> #0:0 (rawvideo (native) -> h264 (libx264))
Press [q] to stop, [?] for help
frame=   19 fps=0.0 q=0.0 size=       0kB time=00:00:00.00 bitrate=N/A speed=   0x    frame=   32 fps= 31 q=0.0 size=       0kB time=00:00:00.00 bitrate=N/A speed=   0x    frame=   36 fps= 23 q=0.0 size=       0kB time=00:00:00.00 bitrate=N/A speed=   0x    frame=   45 fps= 22 q=0.0 size=       0kB time=00:00:00.00 bitrate=N/A speed=   0x    frame=   54 fps= 21 q=0.0 size=       0kB time=00:00:00.00 bitrate=N/A speed=   0x    frame=   63 fps= 21 q=0.0 size=       0kB time=00:00:00.00 bitrate=N/A speed=   0x    frame=   72 fps=6.7 q=0.0 size=       0kB time=00:00:00.00 bitrate=N/A speed=   0x    frame=   77 fps=6.2 q=43.0 size=       1kB time=-00:00:00.01 bitrate=N/A speed=N/A    frame=   78 fps=5.7 q=39.0 size=       1kB time=00:00:00.00 bitrate=5888.0kbits/s speed=7.36e-05x    frame=   80 fps=5.6 q=41.0 size=       1kB time=00:00:00.04 bitrate= 143.6kbits/s speed=0.00288x    frame=   84 fps=5.3 q=49.0 size=       1kB time=00:00:00.12 bitrate=  48.7kbits/s speed=0.00764x    frame=   88 fps=5.2 q=51.0 size=       1kB time=00:00:00.20 bitrate=  29.3kbits/s speed=0.0119x    frame=   90 fps=5.0 q=50.0 size=       1kB time=00:00:00.24 bitrate=  24.4kbits/s speed=0.0135x    frame=   91 fps=4.9 q=50.0 size=       1kB time=00:00:00.26 bitrate=  22.6kbits/s speed=0.014x    frame=   93 fps=4.8 q=49.0 size=       1kB time=00:00:00.30 bitrate=  19.6kbits/s speed=0.0155x    frame=   95 fps=4.5 q=49.0 size=       1kB time=00:00:00.34 bitrate=  17.3kbits/s speed=0.016x    frame=   96 fps=4.4 q=49.0 size=       1kB time=00:00:00.36 bitrate=  16.3kbits/s speed=0.0165x    frame=   99 fps=4.2 q=49.0 size=       1kB time=00:00:00.42 bitrate=  14.0kbits/s speed=0.0177x    frame=  100 fps=4.1 q=49.0 size=       1kB time=00:00:00.44 bitrate=  13.4kbits/s speed=0.0179x    frame=  102 fps=3.9 q=49.0 size=       1kB time=00:00:00.48 bitrate=  12.2kbits/s speed=0.0186x    frame=  103 fps=3.8 q=49.0 size=       1kB time=00:00:00.50 bitrate=  11.8kbits/s speed=0.0184x    frame=  104 fps=3.7 q=49.0 size=       1kB time=00:00:00.52 bitrate=  11.3kbits/s speed=0.0187x    frame=  106 fps=3.7 q=49.0 size=       1kB time=00:00:00.56 bitrate=  10.5kbits/s speed=0.0197x    frame=  107 fps=3.5 q=49.0 size=       1kB time=00:00:00.58 bitrate=  10.1kbits/s speed=0.0191x    frame=  108 fps=3.4 q=49.0 size=       1kB time=00:00:00.60 bitrate=   9.8kbits/s speed=0.0191x    frame=  110 fps=3.4 q=48.0 size=       1kB time=00:00:00.64 bitrate=   9.2kbits/s speed=0.0199x    frame=  111 fps=3.3 q=48.0 size=       1kB time=00:00:00.66 bitrate=   8.9kbits/s speed=0.0198x    frame=  112 fps=3.3 q=48.0 size=       1kB time=00:00:00.68 bitrate=   8.6kbits/s speed=0.02x    frame=  114 fps=3.2 q=48.0 size=       1kB time=00:00:00.72 bitrate=   8.2kbits/s speed=0.0201x    frame=  115 fps=3.1 q=48.0 size=       1kB time=00:00:00.74 bitrate=   7.9kbits/s speed=0.02x    frame=  116 fps=3.1 q=48.0 size=       1kB time=00:00:00.76 bitrate=   7.7kbits/s speed=0.0202x    frame=  117 fps=3.1 q=48.0 size=       1kB time=00:00:00.78 bitrate=   7.5kbits/s speed=0.0204x    frame=  120 fps=3.0 q=48.0 size=       1kB time=00:00:00.84 bitrate=   7.0kbits/s speed=0.0207x    frame=  121 fps=2.9 q=48.0 size=       1kB time=00:00:00.86 bitrate=   6.8kbits/s speed=0.0206x    frame=  122 fps=2.9 q=48.0 size=       1kB time=00:00:00.88 bitrate=   6.7kbits/s speed=0.0207x    frame=  125 fps=2.8 q=48.0 size=       1kB time=00:00:00.94 bitrate=   6.3kbits/s speed=0.0213x    frame=  126 fps=2.8 q=48.0 size=       1kB time=00:00:00.96 bitrate=   6.1kbits/s speed=0.0215x    frame=  128 fps=2.7 q=48.0 size=       1kB time=00:00:01.00 bitrate=   5.9kbits/s speed=0.021x    frame=  130 fps=2.7 q=48.0 size=       1kB time=00:00:01.04 bitrate=   5.7kbits/s speed=0.0214x    frame=  133 fps=2.7 q=47.0 size=       1kB time=00:00:01.10 bitrate=   5.3kbits/s speed=0.0223x    frame=  134 fps=2.6 q=47.0 size=       1kB time=00:00:01.12 bitrate=   5.3kbits/s speed=0.0214x    frame=  137 fps=2.6 q=47.0 size=       1kB time=00:00:01.18 bitrate=   5.0kbits/s speed=0.0221x    frame=  138 fps=2.5 q=47.0 size=       1kB time=00:00:01.20 bitrate=   4.9kbits/s speed=0.0221x    frame=  140 fps=2.5 q=47.0 size=       1kB time=00:00:01.24 bitrate=   4.7kbits/s speed=0.0223x    frame=  141 fps=2.5 q=47.0 size=       1kB time=00:00:01.26 bitrate=   4.7kbits/s speed=0.022x    frame=  142 fps=2.4 q=47.0 size=       1kB time=00:00:01.28 bitrate=   4.6kbits/s speed=0.0219x    frame=  143 fps=2.4 q=47.0 size=       1kB time=00:00:01.30 bitrate=   4.5kbits/s speed=0.022x    frame=  145 fps=2.4 q=47.0 size=       1kB time=00:00:01.34 bitrate=   4.4kbits/s speed=0.0224x    frame=  146 fps=2.4 q=47.0 size=       1kB time=00:00:01.36 bitrate=   4.3kbits/s speed=0.0222x    frame=  147 fps=2.4 q=47.0 size=       1kB time=00:00:01.38 bitrate=   4.3kbits/s speed=0.0223x    frame=  149 fps=2.3 q=47.0 size=       1kB time=00:00:01.42 bitrate=   4.1kbits/s speed=0.0223x    frame=  150 fps=2.3 q=47.0 size=       1kB time=00:00:01.44 bitrate=   4.1kbits/s speed=0.0221x    frame=  151 fps=2.3 q=47.0 size=       1kB time=00:00:01.46 bitrate=   4.0kbits/s speed=0.0222x    frame=  153 fps=2.3 q=47.0 size=       1kB time=00:00:01.50 bitrate=   3.9kbits/s speed=0.0226x    frame=  155 fps=2.3 q=47.0 size=       1kB time=00:00:01.54 bitrate=   3.8kbits/s speed=0.0226x    frame=  156 fps=2.2 q=47.0 size=       1kB time=00:00:01.56 bitrate=   3.8kbits/s speed=0.0224x    frame=  157 fps=2.2 q=47.0 size=       1kB time=00:00:01.58 bitrate=   3.7kbits/s speed=0.0224x    frame=  158 fps=2.2 q=47.0 size=       1kB time=00:00:01.60 bitrate=   3.7kbits/s speed=0.0225x    frame=  160 fps=2.2 q=47.0 size=       1kB time=00:00:01.64 bitrate=   3.6kbits/s speed=0.0226x    frame=  161 fps=2.2 q=47.0 size=       1kB time=00:00:01.66 bitrate=   3.5kbits/s speed=0.0227x    frame=  162 fps=2.2 q=47.0 size=       1kB time=00:00:01.68 bitrate=   3.5kbits/s speed=0.0227x    frame=  164 fps=2.1 q=47.0 size=       1kB time=00:00:01.72 bitrate=   3.4kbits/s speed=0.0225x    frame=  165 fps=2.1 q=47.0 size=       1kB time=00:00:01.74 bitrate=   3.4kbits/s speed=0.0226x    frame=  166 fps=2.1 q=47.0 size=       1kB time=00:00:01.76 bitrate=   3.3kbits/s speed=0.0226x    frame=  168 fps=2.1 q=47.0 size=       1kB time=00:00:01.80 bitrate=   3.3kbits/s speed=0.0229x    frame=  169 fps=2.1 q=47.0 size=       1kB time=00:00:01.82 bitrate=   3.2kbits/s speed=0.0229x    frame=  171 fps=2.1 q=47.0 size=       1kB time=00:00:01.86 bitrate=   3.2kbits/s speed=0.0231x    frame=  172 fps=2.1 q=47.0 size=       1kB time=00:00:01.88 bitrate=   3.1kbits/s speed=0.0225x    frame=  173 fps=2.1 q=47.0 size=       1kB time=00:00:01.90 bitrate=   3.1kbits/s speed=0.0226x    frame=  176 fps=2.1 q=46.0 size=       1kB time=00:00:01.96 bitrate=   3.0kbits/s speed=0.0232x    frame=  178 fps=2.0 q=46.0 size=       1kB time=00:00:02.00 bitrate=   2.9kbits/s speed=0.0227x    frame=  179 fps=2.0 q=46.0 size=       1kB time=00:00:02.02 bitrate=   2.9kbits/s speed=0.0228x    frame=  182 fps=2.0 q=46.0 size=       1kB time=00:00:02.08 bitrate=   2.8kbits/s speed=0.023x    frame=  183 fps=2.0 q=46.0 size=       1kB time=00:00:02.10 bitrate=   2.8kbits/s speed=0.023x    frame=  185 fps=2.0 q=46.0 size=       1kB time=00:00:02.14 bitrate=   2.8kbits/s speed=0.0232x    frame=  186 fps=2.0 q=46.0 size=       1kB time=00:00:02.16 bitrate=   2.7kbits/s speed=0.0229x    frame=  187 fps=2.0 q=46.0 size=       1kB time=00:00:02.18 bitrate=   2.7kbits/s speed=0.0229x    frame=  188 fps=2.0 q=46.0 size=       1kB time=00:00:02.20 bitrate=   2.7kbits/s speed=0.0229x    frame=  191 fps=2.0 q=46.0 size=       1kB time=00:00:02.26 bitrate=   2.6kbits/s speed=0.0231x    frame=  192 fps=1.9 q=46.0 size=       1kB time=00:00:02.28 bitrate=   2.6kbits/s speed=0.0229x    frame=  194 fps=1.9 q=46.0 size=       1kB time=00:00:02.32 bitrate=   2.5kbits/s speed=0.0231x    frame=  196 fps=1.9 q=46.0 size=       1kB time=00:00:02.36 bitrate=   2.5kbits/s speed=0.023x    frame=  197 fps=1.9 q=46.0 size=       1kB time=00:00:02.38 bitrate=   2.5kbits/s speed=0.0231x    frame=  199 fps=1.9 q=46.0 size=       1kB time=00:00:02.42 bitrate=   2.4kbits/s speed=0.0233x    frame=  200 fps=1.9 q=46.0 size=       1kB time=00:00:02.44 bitrate=   2.4kbits/s speed=0.0232x    frame=  201 fps=1.9 q=46.0 size=       1kB time=00:00:02.46 bitrate=   2.4kbits/s speed=0.0231x    frame=  202 fps=1.9 q=46.0 size=       1kB time=00:00:02.48 bitrate=   2.4kbits/s speed=0.023x    frame=  203 fps=1.9 q=46.0 size=       1kB time=00:00:02.50 bitrate=   2.4kbits/s speed=0.0231x    frame=  205 fps=1.9 q=46.0 size=       1kB time=00:00:02.54 bitrate=   2.3kbits/s speed=0.0233x    frame=  206 fps=1.9 q=46.0 size=       1kB time=00:00:02.56 bitrate=   2.3kbits/s speed=0.0232x    frame=  207 fps=1.9 q=46.0 size=       1kB time=00:00:02.58 bitrate=   2.3kbits/s speed=0.0233x    frame=  208 fps=1.9 q=46.0 size=       1kB time=00:00:02.60 bitrate=   2.3kbits/s speed=0.0232x    frame=  209 fps=1.9 q=46.0 size=       1kB time=00:00:02.62 bitrate=   2.2kbits/s speed=0.0233x    frame=  210 fps=1.8 q=46.0 size=       1kB time=00:00:02.64 bitrate=   2.2kbits/s speed=0.0231x    frame=  211 fps=1.8 q=46.0 size=       1kB time=00:00:02.66 bitrate=   2.2kbits/s speed=0.0231x    frame=  212 fps=1.8 q=46.0 size=       1kB time=00:00:02.68 bitrate=   2.2kbits/s speed=0.0232x    frame=  214 fps=1.8 q=46.0 size=       1kB time=00:00:02.72 bitrate=   2.2kbits/s speed=0.0232x    frame=  215 fps=1.8 q=46.0 size=       1kB time=00:00:02.74 bitrate=   2.1kbits/s speed=0.0231x    frame=  216 fps=1.8 q=46.0 size=       1kB time=00:00:02.76 bitrate=   2.1kbits/s speed=0.0232x    frame=  218 fps=1.8 q=46.0 size=       1kB time=00:00:02.80 bitrate=   2.1kbits/s speed=0.0233x    frame=  219 fps=1.8 q=46.0 size=       1kB time=00:00:02.82 bitrate=   2.1kbits/s speed=0.0233x    frame=  220 fps=1.8 q=46.0 size=       1kB time=00:00:02.84 bitrate=   2.1kbits/s speed=0.023x    frame=  224 fps=1.8 q=46.0 size=       1kB time=00:00:02.92 bitrate=   2.0kbits/s speed=0.0232x    frame=  225 fps=1.8 q=46.0 size=       1kB time=00:00:02.94 bitrate=   2.0kbits/s speed=0.0232x    frame=  226 fps=1.8 q=46.0 size=       1kB time=00:00:02.96 bitrate=   2.0kbits/s speed=0.0231x    frame=  229 fps=1.8 q=46.0 size=       1kB time=00:00:03.02 bitrate=   1.9kbits/s speed=0.0232x    frame=  230 fps=1.8 q=46.0 size=       1kB time=00:00:03.04 bitrate=   1.9kbits/s speed=0.0232x    frame=  231 fps=1.8 q=46.0 size=       1kB time=00:00:03.06 bitrate=   1.9kbits/s speed=0.0232x    frame=  234 fps=1.7 q=46.0 size=       1kB time=00:00:03.12 bitrate=   1.9kbits/s speed=0.0233x    frame=  235 fps=1.7 q=46.0 size=       1kB time=00:00:03.14 bitrate=   1.9kbits/s speed=0.0231x    frame=  236 fps=1.7 q=46.0 size=       1kB time=00:00:03.16 bitrate=   1.9kbits/s speed=0.0231x    frame=  239 fps=1.7 q=46.0 size=       1kB time=00:00:03.22 bitrate=   1.8kbits/s speed=0.0233x    frame=  240 fps=1.7 q=46.0 size=       1kB time=00:00:03.24 bitrate=   1.8kbits/s speed=0.0231x    frame=  241 fps=1.7 q=46.0 size=       1kB time=00:00:03.26 bitrate=   1.8kbits/s speed=0.0232x    frame=  245 fps=1.7 q=46.0 size=       1kB time=00:00:03.34 bitrate=   1.8kbits/s speed=0.0233x    frame=  246 fps=1.7 q=46.0 size=       1kB time=00:00:03.36 bitrate=   1.8kbits/s speed=0.0231x    frame=  247 fps=1.7 q=46.0 size=       1kB time=00:00:03.38 bitrate=   1.7kbits/s speed=0.0232x    frame=  250 fps=1.7 q=46.0 size=       1kB time=00:00:03.44 bitrate=   1.7kbits/s speed=0.0232x    frame=  251 fps=1.7 q=46.0 size=       1kB time=00:00:03.46 bitrate=   1.7kbits/s speed=0.0232x    frame=  252 fps=1.7 q=46.0 size=       1kB time=00:00:03.48 bitrate=   1.7kbits/s speed=0.0232x    frame=  254 fps=1.7 q=46.0 size=       1kB time=00:00:03.52 bitrate=   1.7kbits/s speed=0.0234x    frame=  256 fps=1.7 q=46.0 size=       1kB time=00:00:03.56 bitrate=   1.7kbits/s speed=0.0232x    frame=  257 fps=1.7 q=46.0 size=       1kB time=00:00:03.58 bitrate=   1.6kbits/s speed=0.0232x    frame=  258 fps=1.7 q=46.0 size=       1kB time=00:00:03.60 bitrate=   1.6kbits/s speed=0.0233x    frame=  260 fps=1.7 q=46.0 size=       1kB time=00:00:03.64 bitrate=   1.6kbits/s speed=0.0233x    frame=  261 fps=1.7 q=46.0 size=       1kB time=00:00:03.66 bitrate=   1.6kbits/s speed=0.0233x    frame=  263 fps=1.7 q=46.0 size=       1kB time=00:00:03.70 bitrate=   1.6kbits/s speed=0.0235x    frame=  264 fps=1.6 q=46.0 size=       1kB time=00:00:03.72 bitrate=   1.6kbits/s speed=0.0232x    frame=  265 fps=1.6 q=46.0 size=       1kB time=00:00:03.74 bitrate=   1.6kbits/s speed=0.0233x    frame=  267 fps=1.7 q=46.0 size=       1kB time=00:00:03.78 bitrate=   1.6kbits/s speed=0.0235x    frame=  268 fps=1.6 q=46.0 size=       1kB time=00:00:03.80 bitrate=   1.5kbits/s speed=0.0232x    frame=  269 fps=1.6 q=46.0 size=       1kB time=00:00:03.82 bitrate=   1.5kbits/s speed=0.0232x    frame=  271 fps=1.6 q=46.0 size=       1kB time=00:00:03.86 bitrate=   1.5kbits/s speed=0.0233x    frame=  273 fps=1.6 q=46.0 size=       1kB time=00:00:03.90 bitrate=   1.5kbits/s speed=0.0234x    frame=  274 fps=1.6 q=46.0 size=       1kB time=00:00:03.92 bitrate=   1.5kbits/s speed=0.0233x    frame=  276 fps=1.6 q=46.0 size=       1kB time=00:00:03.96 bitrate=   1.5kbits/s speed=0.0234x    frame=  277 fps=1.6 q=46.0 size=       1kB time=00:00:03.98 bitrate=   1.5kbits/s speed=0.0232x    frame=  278 fps=1.6 q=46.0 size=       1kB time=00:00:04.00 bitrate=   1.5kbits/s speed=0.0232x    frame=  279 fps=1.6 q=46.0 size=       1kB time=00:00:04.02 bitrate=   1.5kbits/s speed=0.0233x    frame=  282 fps=1.6 q=46.0 size=       1kB time=00:00:04.08 bitrate=   1.4kbits/s speed=0.0234x    frame=  283 fps=1.6 q=46.0 size=       1kB time=00:00:04.10 bitrate=   1.4kbits/s speed=0.0232x    frame=  286 fps=1.6 q=46.0 size=       1kB time=00:00:04.16 bitrate=   1.4kbits/s speed=0.0233x    frame=  287 fps=1.6 q=46.0 size=       1kB time=00:00:04.18 bitrate=   1.4kbits/s speed=0.0233x    frame=  288 fps=1.6 q=46.0 size=       1kB time=00:00:04.20 bitrate=   1.4kbits/s speed=0.0233x    frame=  290 fps=1.6 q=46.0 size=       1kB time=00:00:04.24 bitrate=   1.4kbits/s speed=0.0232x    frame=  291 fps=1.6 q=46.0 size=       1kB time=00:00:04.26 bitrate=   1.4kbits/s speed=0.0233x    frame=  293 fps=1.6 q=46.0 size=       1kB time=00:00:04.30 bitrate=   1.4kbits/s speed=0.0234x    frame=  294 fps=1.6 q=46.0 size=       1kB time=00:00:04.32 bitrate=   1.4kbits/s speed=0.0232x    frame=  295 fps=1.6 q=46.0 size=       1kB time=00:00:04.34 bitrate=   1.4kbits/s speed=0.0232x    frame=  297 fps=1.6 q=46.0 size=       1kB time=00:00:04.38 bitrate=   1.3kbits/s speed=0.0234x    frame=  299 fps=1.6 q=46.0 size=       1kB time=00:00:04.42 bitrate=   1.3kbits/s speed=0.0234x    frame=  300 fps=1.6 q=46.0 size=       1kB time=00:00:04.44 bitrate=   1.3kbits/s speed=0.0232x    frame=  301 fps=1.6 q=46.0 size=       1kB time=00:00:04.46 bitrate=   1.3kbits/s speed=0.0232x    frame=  303 fps=1.6 q=46.0 size=       1kB time=00:00:04.50 bitrate=   1.3kbits/s speed=0.0233x    frame=  304 fps=1.6 q=46.0 size=    5121kB time=00:00:04.52 bitrate=9280.0kbits/s speed=0.0233x    frame=  305 fps=1.6 q=46.0 size=    5121kB time=00:00:04.54 bitrate=9239.1kbits/s speed=0.0233x    frame=  306 fps=1.6 q=46.0 size=    5121kB time=00:00:04.56 bitrate=9198.6kbits/s speed=0.0234x    frame=  307 fps=1.6 q=46.0 size=    5121kB time=00:00:04.58 bitrate=9158.4kbits/s speed=0.0232x    frame=  308 fps=1.6 q=46.0 size=    5121kB time=00:00:04.60 bitrate=9118.6kbits/s speed=0.0232x    frame=  309 fps=1.6 q=46.0 size=    5121kB time=00:00:04.62 bitrate=9079.2kbits/s speed=0.0233x    frame=  311 fps=1.6 q=46.0 size=    5121kB time=00:00:04.66 bitrate=9001.3kbits/s speed=0.0233x    frame=  312 fps=1.6 q=46.0 size=    5121kB time=00:00:04.68 bitrate=8962.8kbits/s speed=0.0233x    frame=  314 fps=1.6 q=46.0 size=    5121kB time=00:00:04.72 bitrate=8886.9kbits/s speed=0.0234x    frame=  315 fps=1.5 q=46.0 size=    5121kB time=00:00:04.74 bitrate=8849.4kbits/s speed=0.0232x    frame=  316 fps=1.5 q=46.0 size=    5121kB time=00:00:04.76 bitrate=8812.2kbits/s speed=0.0232x    frame=  317 fps=1.5 q=46.0 size=    5121kB time=00:00:04.78 bitrate=8775.3kbits/s speed=0.0232x    frame=  320 fps=1.5 q=46.0 size=    5121kB time=00:00:04.84 bitrate=8666.6kbits/s speed=0.0233x    frame=  321 fps=1.5 q=43.0 size=    5121kB time=00:00:04.86 bitrate=8630.9kbits/s speed=0.0232x    frame=  324 fps=1.5 q=46.0 size=    5121kB time=00:00:04.92 bitrate=8525.7kbits/s speed=0.0234x    frame=  325 fps=1.5 q=46.0 size=    5121kB time=00:00:04.94 bitrate=8491.2kbits/s speed=0.0234x    frame=  327 fps=1.5 q=46.0 size=    5576kB time=00:00:04.98 bitrate=9169.7kbits/s speed=0.0235x    frame=  332 fps=1.6 q=46.0 size=    5576kB time=00:00:05.08 bitrate=8989.3kbits/s speed=0.0239x    frame=  333 fps=1.6 q=46.0 size=    5576kB time=00:00:05.10 bitrate=8954.0kbits/s speed=0.0239x    frame=  336 fps=1.6 q=46.0 size=    5576kB time=00:00:05.16 bitrate=8849.9kbits/s speed=0.024x    frame=  338 fps=1.6 q=46.0 size=    5576kB time=00:00:05.20 bitrate=8781.9kbits/s speed=0.0242x    frame=  340 fps=1.6 q=46.0 size=    5576kB time=00:00:05.24 bitrate=8714.8kbits/s speed=0.0243x    frame=  341 fps=1.6 q=46.0 size=    5576kB time=00:00:05.26 bitrate=8681.7kbits/s speed=0.0243x    frame=  342 fps=1.6 q=46.0 size=    5576kB time=00:00:05.28 bitrate=8648.8kbits/s speed=0.0242x    frame=  345 fps=1.6 q=46.0 size=    5576kB time=00:00:05.34 bitrate=8551.7kbits/s speed=0.0244x    frame=  346 fps=1.6 q=46.0 size=    5576kB time=00:00:05.36 bitrate=8519.8kbits/s speed=0.0244x    frame=  348 fps=1.6 q=46.0 size=    5576kB time=00:00:05.40 bitrate=8456.7kbits/s speed=0.0245x    frame=  349 fps=1.6 q=46.0 size=    5576kB time=00:00:05.42 bitrate=8425.5kbits/s speed=0.0243x    frame=  350 fps=1.6 q=46.0 size=    5576kB time=00:00:05.44 bitrate=8394.5kbits/s speed=0.0244x    frame=  352 fps=1.6 q=46.0 size=    5576kB time=00:00:05.48 bitrate=8333.2kbits/s speed=0.0245x    frame=  353 fps=1.6 q=46.0 size=    5576kB time=00:00:05.50 bitrate=8302.9kbits/s speed=0.0244x    frame=  354 fps=1.6 q=46.0 size=    5576kB time=00:00:05.52 bitrate=8272.9kbits/s speed=0.0244x    frame=  355 fps=1.6 q=46.0 size=    5576kB time=00:00:05.54 bitrate=8243.0kbits/s speed=0.0244x    frame=  356 fps=1.6 q=46.0 size=    5576kB time=00:00:05.56 bitrate=8213.4kbits/s speed=0.0244x    frame=  357 fps=1.6 q=46.0 size=    5576kB time=00:00:05.58 bitrate=8183.9kbits/s speed=0.0243x    frame=  358 fps=1.6 q=46.0 size=    5576kB time=00:00:05.60 bitrate=8154.7kbits/s speed=0.0244x    frame=  359 fps=1.6 q=46.0 size=    5576kB time=00:00:05.62 bitrate=8125.7kbits/s speed=0.0243x    frame=  361 fps=1.6 q=46.0 size=    5576kB time=00:00:05.66 bitrate=8068.3kbits/s speed=0.0244x    frame=  362 fps=1.6 q=46.0 size=    5576kB time=00:00:05.68 bitrate=8039.9kbits/s speed=0.0244x    frame=  364 fps=1.6 q=46.0 size=    5576kB time=00:00:05.72 bitrate=7983.7kbits/s speed=0.0245x    frame=  365 fps=1.5 q=46.0 size=    5576kB time=00:00:05.74 bitrate=7955.8kbits/s speed=0.0243x    frame=  366 fps=1.5 q=46.0 size=    5576kB time=00:00:05.76 bitrate=7928.2kbits/s speed=0.0243x    frame=  367 fps=1.5 q=46.0 size=    5576kB time=00:00:05.78 bitrate=7900.8kbits/s speed=0.0243x    frame=  370 fps=1.5 q=46.0 size=    5576kB time=00:00:05.84 bitrate=7819.6kbits/s speed=0.0244x    frame=  371 fps=1.5 q=46.0 size=    5576kB time=00:00:05.86 bitrate=7793.0kbits/s speed=0.0244x    frame=  373 fps=1.5 q=46.0 size=    5576kB time=00:00:05.90 bitrate=7740.1kbits/s speed=0.0242x    frame=  374 fps=1.5 q=46.0 size=    5576kB time=00:00:05.92 bitrate=7714.0kbits/s speed=0.0243x    frame=  376 fps=1.5 q=46.0 size=    5576kB time=00:00:05.96 bitrate=7662.2kbits/s speed=0.0244x    frame=  378 fps=1.5 q=46.0 size=    5576kB time=00:00:06.00 bitrate=7611.1kbits/s speed=0.0244x    frame=  379 fps=1.5 q=46.0 size=    5576kB time=00:00:06.02 bitrate=7585.9kbits/s speed=0.0243x    frame=  380 fps=1.5 q=46.0 size=    5576kB time=00:00:06.04 bitrate=7560.8kbits/s speed=0.0243x    frame=  382 fps=1.5 q=46.0 size=    5576kB time=00:00:06.08 bitrate=7511.0kbits/s speed=0.0243x    frame=  383 fps=1.5 q=46.0 size=    5576kB time=00:00:06.10 bitrate=7486.4kbits/s speed=0.0243x    frame=  385 fps=1.5 q=46.0 size=    5576kB time=00:00:06.14 bitrate=7437.6kbits/s speed=0.0244x    frame=  386 fps=1.5 q=46.0 size=    5576kB time=00:00:06.16 bitrate=7413.5kbits/s speed=0.0243x    frame=  387 fps=1.5 q=46.0 size=    5576kB time=00:00:06.18 bitrate=7389.5kbits/s speed=0.0243x    frame=  388 fps=1.5 q=46.0 size=    5576kB time=00:00:06.20 bitrate=7365.7kbits/s speed=0.0243x    frame=  390 fps=1.5 q=46.0 size=    5576kB time=00:00:06.24 bitrate=7318.5kbits/s speed=0.0243x    frame=  391 fps=1.5 q=46.0 size=    5576kB time=00:00:06.26 bitrate=7295.1kbits/s speed=0.0243x    frame=  392 fps=1.5 q=46.0 size=    5576kB time=00:00:06.28 bitrate=7271.9kbits/s speed=0.0243x    frame=  394 fps=1.5 q=46.0 size=    5576kB time=00:00:06.32 bitrate=7225.8kbits/s speed=0.0243x    frame=  395 fps=1.5 q=46.0 size=    5576kB time=00:00:06.34 bitrate=7203.0kbits/s speed=0.0243x    frame=  396 fps=1.5 q=46.0 size=    5576kB time=00:00:06.36 bitrate=7180.4kbits/s speed=0.0243x    frame=  397 fps=1.5 q=46.0 size=    5576kB time=00:00:06.38 bitrate=7157.9kbits/s speed=0.0243x    frame=  398 fps=1.5 q=46.0 size=    5576kB time=00:00:06.40 bitrate=7135.5kbits/s speed=0.0242x    frame=  399 fps=1.5 q=46.0 size=    5576kB time=00:00:06.42 bitrate=7113.3kbits/s speed=0.0242x    frame=  401 fps=1.5 q=46.0 size=    5576kB time=00:00:06.46 bitrate=7069.3kbits/s speed=0.0243x    frame=  402 fps=1.5 q=46.0 size=    5576kB time=00:00:06.48 bitrate=7047.4kbits/s speed=0.0242x    frame=  403 fps=1.5 q=46.0 size=    5576kB time=00:00:06.50 bitrate=7025.8kbits/s speed=0.0242x    frame=  405 fps=1.5 q=46.0 size=    5576kB time=00:00:06.54 bitrate=6982.8kbits/s speed=0.0243x    frame=  407 fps=1.5 q=46.0 size=    5576kB time=00:00:06.58 bitrate=6940.4kbits/s speed=0.0242x    frame=  408 fps=1.5 q=46.0 size=    5576kB time=00:00:06.60 bitrate=6919.3kbits/s speed=0.0241x    frame=  409 fps=1.5 q=46.0 size=    5576kB time=00:00:06.62 bitrate=6898.4kbits/s speed=0.0242x    frame=  411 fps=1.5 q=46.0 size=    5576kB time=00:00:06.66 bitrate=6857.0kbits/s speed=0.0242x    frame=  412 fps=1.5 q=46.0 size=    5576kB time=00:00:06.68 bitrate=6836.5kbits/s speed=0.0242x    frame=  413 fps=1.5 q=46.0 size=    5576kB time=00:00:06.70 bitrate=6816.1kbits/s speed=0.0242x    frame=  415 fps=1.5 q=46.0 size=    5576kB time=00:00:06.74 bitrate=6775.6kbits/s speed=0.0241x    frame=  416 fps=1.5 q=46.0 size=    5576kB time=00:00:06.76 bitrate=6755.6kbits/s speed=0.0241x    frame=  418 fps=1.5 q=46.0 size=    5576kB time=00:00:06.80 bitrate=6715.9kbits/s speed=0.0242x    frame=  420 fps=1.5 q=46.0 size=    5576kB time=00:00:06.84 bitrate=6676.6kbits/s speed=0.0243x    frame=  421 fps=1.5 q=46.0 size=    5576kB time=00:00:06.86 bitrate=6657.1kbits/s speed=0.0241x    frame=  423 fps=1.5 q=46.0 size=    5576kB time=00:00:06.90 bitrate=6618.5kbits/s speed=0.0242x    frame=  424 fps=1.5 q=46.0 size=    5576kB time=00:00:06.92 bitrate=6599.4kbits/s speed=0.0242x    frame=  425 fps=1.5 q=46.0 size=    5576kB time=00:00:06.94 bitrate=6580.4kbits/s speed=0.0241x    frame=  427 fps=1.5 q=46.0 size=    5576kB time=00:00:06.98 bitrate=6542.7kbits/s speed=0.0242x    frame=  428 fps=1.5 q=46.0 size=    5576kB time=00:00:07.00 bitrate=6524.0kbits/s speed=0.024x    frame=  429 fps=1.5 q=46.0 size=    5576kB time=00:00:07.02 bitrate=6505.4kbits/s speed=0.0241x    frame=  430 fps=1.5 q=46.0 size=    5576kB time=00:00:07.04 bitrate=6486.9kbits/s speed=0.0241x    frame=  434 fps=1.5 q=46.0 size=    5576kB time=00:00:07.12 bitrate=6414.1kbits/s speed=0.0241x    frame=  435 fps=1.5 q=46.0 size=    5576kB time=00:00:07.14 bitrate=6396.1kbits/s speed=0.0241x    frame=  437 fps=1.5 q=46.0 size=    5576kB time=00:00:07.18 bitrate=6360.5kbits/s speed=0.0241x    frame=  438 fps=1.5 q=46.0 size=    5576kB time=00:00:07.20 bitrate=6342.8kbits/s speed=0.0241x    frame=  439 fps=1.5 q=46.0 size=    5576kB time=00:00:07.22 bitrate=6325.2kbits/s speed=0.0241x    frame=  441 fps=1.5 q=46.0 size=    5576kB time=00:00:07.26 bitrate=6290.4kbits/s speed=0.0241x    frame=  442 fps=1.5 q=46.0 size=    5576kB time=00:00:07.28 bitrate=6273.1kbits/s speed=0.0241x    frame=  443 fps=1.5 q=46.0 size=    5576kB time=00:00:07.30 bitrate=6255.9kbits/s speed=0.0241x    frame=  445 fps=1.5 q=46.0 size=    5576kB time=00:00:07.34 bitrate=6221.8kbits/s speed=0.0241x    frame=  446 fps=1.5 q=46.0 size=    5576kB time=00:00:07.36 bitrate=6204.9kbits/s speed=0.0241x    frame=  447 fps=1.5 q=46.0 size=    5576kB time=00:00:07.38 bitrate=6188.1kbits/s speed=0.0241x    frame=  449 fps=1.5 q=46.0 size=    5576kB time=00:00:07.42 bitrate=6154.8kbits/s speed=0.024x    frame=  451 fps=1.5 q=46.0 size=    5576kB time=00:00:07.46 bitrate=6121.8kbits/s speed=0.0241x    frame=  453 fps=1.5 q=46.0 size=    5576kB time=00:00:07.50 bitrate=6089.1kbits/s speed=0.0241x    frame=  454 fps=1.5 q=46.0 size=    5576kB time=00:00:07.52 bitrate=6072.9kbits/s speed=0.0241x    frame=  455 fps=1.5 q=46.0 size=    5576kB time=00:00:07.54 bitrate=6056.8kbits/s speed=0.024x    frame=  457 fps=1.5 q=46.0 size=    5576kB time=00:00:07.58 bitrate=6024.9kbits/s speed=0.0241x    frame=  458 fps=1.5 q=46.0 size=    5576kB time=00:00:07.60 bitrate=6009.0kbits/s speed=0.0241x    frame=  459 fps=1.5 q=46.0 size=    5576kB time=00:00:07.62 bitrate=5993.2kbits/s speed=0.0241x    frame=  461 fps=1.4 q=46.0 size=    5576kB time=00:00:07.66 bitrate=5962.0kbits/s speed=0.024x    frame=  462 fps=1.4 q=46.0 size=    5576kB time=00:00:07.68 bitrate=5946.4kbits/s speed=0.024x    frame=  464 fps=1.4 q=46.0 size=    5576kB time=00:00:07.72 bitrate=5915.6kbits/s speed=0.0241x    frame=  466 fps=1.5 q=46.0 size=    5576kB time=00:00:07.76 bitrate=5885.1kbits/s speed=0.0242x    frame=  467 fps=1.4 q=46.0 size=    5576kB time=00:00:07.78 bitrate=5870.0kbits/s speed=0.0241x    frame=  468 fps=1.4 q=46.0 size=    5576kB time=00:00:07.80 bitrate=5855.0kbits/s speed=0.024x    frame=  469 fps=1.4 q=46.0 size=    5576kB time=00:00:07.82 bitrate=5840.0kbits/s speed=0.024x    frame=  470 fps=1.4 q=46.0 size=    5576kB time=00:00:07.84 bitrate=5825.1kbits/s speed=0.024x    frame=  474 fps=1.4 q=46.0 size=    5576kB time=00:00:07.92 bitrate=5766.3kbits/s speed=0.024x    frame=  476 fps=1.4 q=46.0 size=    5576kB time=00:00:07.96 bitrate=5737.3kbits/s speed=0.0241x    frame=  477 fps=1.4 q=46.0 size=    5576kB time=00:00:07.98 bitrate=5722.9kbits/s speed=0.024x    frame=  478 fps=1.4 q=46.0 size=    5576kB time=00:00:08.00 bitrate=5708.6kbits/s speed=0.0241x    frame=  479 fps=1.4 q=46.0 size=    5576kB time=00:00:08.02 bitrate=5694.4kbits/s speed=0.0241x    frame=  480 fps=1.4 q=46.0 size=    5576kB time=00:00:08.04 bitrate=5680.2kbits/s speed=0.024x    frame=  481 fps=1.4 q=46.0 size=    5576kB time=00:00:08.06 bitrate=5666.1kbits/s speed=0.024x    frame=  482 fps=1.4 q=46.0 size=    5576kB time=00:00:08.08 bitrate=5652.1kbits/s speed=0.024x    frame=  483 fps=1.4 q=46.0 size=    5576kB time=00:00:08.10 bitrate=5638.1kbits/s speed=0.024x    frame=  484 fps=1.4 q=46.0 size=    5576kB time=00:00:08.12 bitrate=5624.2kbits/s speed=0.024x    frame=  486 fps=1.4 q=46.0 size=    5576kB time=00:00:08.16 bitrate=5596.7kbits/s speed=0.024x    frame=  488 fps=1.4 q=46.0 size=    5576kB time=00:00:08.20 bitrate=5569.4kbits/s speed=0.024x    frame=  490 fps=1.4 q=46.0 size=    5576kB time=00:00:08.24 bitrate=5542.3kbits/s speed=0.024x    frame=  491 fps=1.4 q=46.0 size=    5576kB time=00:00:08.26 bitrate=5528.9kbits/s speed=0.024x    frame=  492 fps=1.4 q=46.0 size=    5576kB time=00:00:08.28 bitrate=5515.6kbits/s speed=0.024x    frame=  494 fps=1.4 q=46.0 size=    5576kB time=00:00:08.32 bitrate=5489.1kbits/s speed=0.024x    frame=  495 fps=1.4 q=46.0 size=    5576kB time=00:00:08.34 bitrate=5475.9kbits/s speed=0.024x    frame=  496 fps=1.4 q=46.0 size=    5576kB time=00:00:08.36 bitrate=5462.8kbits/s speed=0.024x    frame=  498 fps=1.4 q=46.0 size=    5576kB time=00:00:08.40 bitrate=5436.8kbits/s speed=0.024x    frame=  499 fps=1.4 q=46.0 size=    5576kB time=00:00:08.42 bitrate=5423.9kbits/s speed=0.024x    frame=  500 fps=1.4 q=46.0 size=    5576kB time=00:00:08.44 bitrate=5411.0kbits/s speed=0.024x    frame=  500 fps=1.2 q=-1.0 Lsize=   10986kB time=00:00:09.94 bitrate=9053.0kbits/s speed=0.0241x    
video:10981kB audio:0kB subtitle:0kB other streams:0kB global headers:0kB muxing overhead: 0.040765%
bench: utime=1601.664s
bench: maxrss=3283060kB
[libx264 @ 0x44c01c0] frame I:2     Avg QP:37.08  size:317593
[libx264 @ 0x44c01c0] frame P:114   Avg QP:46.67  size: 45124
[libx264 @ 0x44c01c0] frame B:384   Avg QP:47.77  size: 14231
[libx264 @ 0x44c01c0] consecutive B-frames:  0.4%  0.0%  1.2% 60.0% 30.0%  8.4%  0.0%  0.0%  0.0%
[libx264 @ 0x44c01c0] mb I  I16..4: 21.7% 71.9%  6.4%
[libx264 @ 0x44c01c0] mb P  I16..4:  2.1%  4.0%  0.0%  P16..4: 36.3%  2.6%  5.2%  0.0%  0.0%    skip:49.8%
[libx264 @ 0x44c01c0] mb B  I16..4:  0.0%  0.1%  0.0%  B16..8: 38.2%  1.0%  0.1%  direct: 0.1%  skip:60.5%  L0:43.9% L1:55.7% BI: 0.3%
[libx264 @ 0x44c01c0] final ratefactor: 37.73
[libx264 @ 0x44c01c0] 8x8 transform intra:67.1% inter:89.9%
[libx264 @ 0x44c01c0] direct mvs  spatial:99.2% temporal:0.8%
[libx264 @ 0x44c01c0] coded y,uvDC,uvAC intra: 25.7% 42.4% 12.6% inter: 1.2% 3.2% 0.0%
[libx264 @ 0x44c01c0] i16 v,h,dc,p: 35% 22%  7% 36%
[libx264 @ 0x44c01c0] i8 v,h,dc,ddl,ddr,vr,hd,vl,hu:  8%  4% 11% 12% 15% 14% 14% 12% 11%
[libx264 @ 0x44c01c0] i4 v,h,dc,ddl,ddr,vr,hd,vl,hu:  6%  4%  2% 13% 16% 16% 16% 13% 16%
[libx264 @ 0x44c01c0] i8c dc,h,v,p: 55% 17% 16% 13%
[libx264 @ 0x44c01c0] Weighted P-Frames: Y:1.8% UV:0.9%
[libx264 @ 0x44c01c0] ref P L0: 55.9%  3.5% 14.5%  4.5%  3.9%  3.4%  3.3%  1.6%  1.5%  1.2%  1.2%  1.1%  1.1%  1.1%  1.3%  0.8%
[libx264 @ 0x44c01c0] ref B L0: 93.9%  3.0%  1.1%  0.4%  0.3%  0.3%  0.2%  0.1%  0.1%  0.1%  0.1%  0.1%  0.1%  0.1%  0.1%
[libx264 @ 0x44c01c0] ref B L1: 98.9%  1.1%
[libx264 @ 0x44c01c0] kb/s:8995.32
